<svg width="315" height="313" viewBox="0 0 315 313" fill="none" xmlns="http://www.w3.org/2000/svg">
<path d="M301.875 212.589V180.264L307.716 177.355C312.244 175.108 315 170.547 315 165.523V152.17C315 147.543 312.703 143.379 308.766 140.933C304.828 138.487 300.103 138.289 295.969 140.338L153.825 211.928C151.988 212.853 149.756 212.853 147.919 211.928L36.0281 155.607L35.1749 153.822L33.8625 154.484L23.8876 149.46C17.1938 146.089 12.9938 139.28 12.9938 131.744V104.906C12.9938 97.3703 17.1938 90.5616 23.8876 87.1903L165.309 15.9309C172.659 12.2291 181.453 12.2291 188.803 15.9309L295.05 69.4087C297.347 70.5323 298.659 72.78 298.659 75.2919C298.659 77.8037 297.281 80.0514 295.05 81.175L153.628 152.435C151.791 153.36 149.691 153.36 147.853 152.5L38.3249 100.213C34.2563 98.296 29.5312 98.5602 25.6595 101.006C21.8531 103.452 19.5563 107.616 19.5563 112.177V133.264H32.6813V112.244L142.21 164.531C147.722 167.176 153.956 167.11 159.403 164.333L288.75 99.2212V126.654H301.875V92.545C308.044 89.0412 311.916 82.5633 311.916 75.3577C311.916 67.8221 307.781 61.0133 301.022 57.642L194.775 4.16452C183.75 -1.38817 170.56 -1.38817 159.535 4.16452L18.1125 75.424C6.89063 81.0429 0 92.4124 0 104.972V131.81C0 144.436 6.95623 155.74 18.1125 161.359L19.2281 161.953L18.1125 162.548C6.89063 168.167 0 179.537 0 192.097V218.935C0 231.56 6.95623 242.864 18.1125 248.483L142.144 310.951C144.9 312.339 147.919 313 150.937 313C153.956 313 156.975 312.339 159.731 310.951L311.325 235.13L305.484 223.297L153.825 299.118C151.988 300.043 149.756 300.043 147.919 299.118L23.953 236.65C17.2594 233.279 13.0594 226.47 13.0594 218.935V192.097C13.0594 184.561 17.2594 177.752 23.953 174.381L33.9283 169.357L142.078 223.826C147.59 226.603 154.153 226.603 159.666 223.826L301.875 152.104V165.457L153.694 239.493C151.856 240.418 149.756 240.418 147.919 239.559L38.3906 187.271C34.322 185.354 29.597 185.618 25.7249 188.064C21.9189 190.51 19.6219 194.675 19.6219 199.236V219.199H32.747V199.302L142.275 251.59C144.966 252.846 147.853 253.507 150.675 253.507C153.694 253.507 156.647 252.779 159.469 251.391L288.75 186.808V212.589H301.875Z" fill="#505F98"/>
</svg>
